<?xml version="1.0" encoding="UTF-8"?>
<svg xmlns="http://www.w3.org/2000/svg" viewBox="0 0 562 348">
  <path d="M769.46 405.88a29 29 0 0 1-29 29.11H235.75a29 29 0 0 1-28.95-29.11V115.55a29 29 0 0 1 28.95-29.13h504.76a29 29 0 0 1 29 29.13z" transform="translate(-206.8 -86.42)" fill="#df281d"/>
  <path fill="#FFF" d="M297.11 244.76c-3.13-3-5.72-4.76-10.26-4.76-11.46 0-14.27 12.65-14.27 21.62 0 9.51 2.81 21.61 13.84 21.61 5 0 8.1-1.94 11.67-5.19l-1.3 22.81a31.42 31.42 0 0 1-13.29 2.91c-18.05 0-33.4-13.72-33.4-41.6 0-36.53 25.08-42.69 35.78-42.69a30.23 30.23 0 0 1 11.23 1.95zM344.34 302.36l-12.21-33.93-.22.21c.11 4 .33 8 .33 12v21.72h-22.05v-81.49h21.29c19.13 0 33 5.62 33 27.13 0 9-3.89 17-12.64 20.43l16.42 33.93zm-10.7-43.77c5.84 0 9-5.08 9-10.37 0-7.14-4.32-10.16-10.37-9.84v20.1zM375.46 220.87h41v19.24h-18.95v11.35h17v19.24h-17v12.42h18.91v19.24h-41zM429.39 220.87h17.72c25.07 0 38.58 15.78 38.58 40.42 0 37.61-23.67 41.07-37.07 41.07h-19.23zm22 61.82c10.05-.11 11.78-12.64 11.78-20.32 0-8.86-1.73-21.18-11.78-21.18zM496.28 302.36v-81.49h22.05v81.49zM589.43 302.36l-2-51.23h-.22c-1 5.95-1.72 11.89-2.81 17.84l-6.26 33.39h-17.99l-7.68-51.23h-.21c-.11 6.06 0 12-.33 18.05l-1.83 33.18h-23.67l9.51-81.49h27.45l6.27 43.34h.21c.65-5.08 1.19-10 2.16-15.13l5.3-28.21h27.13l7.89 81.49zM655.79 302.36l-1.62-10.48h-14.81l-1.84 10.48h-22.69l19.56-81.49h26.91l17.29 81.49zm-4.22-27.77l-2.37-18.92c-.65-5.08-1.09-10.26-1.63-15.34h-.21c-.65 5.08-1.19 10.26-2.06 15.34l-3 18.92zM683.78 274.91c3 4.54 8.32 9.08 13.94 9.08 3 0 6.48-1.84 6.48-5.41a6.35 6.35 0 0 0-1.73-4.53 17.48 17.48 0 0 0-3.67-3.14c-4.33-3.35-8.11-6.48-10.92-10.37a23.63 23.63 0 0 1-4.43-14.27c0-9.51 6-26.8 24.86-26.8a34.51 34.51 0 0 1 15.69 4.11v24.74c-2.6-4.1-7.89-8.75-13-8.75-2.59 0-5.73 1.84-5.73 5a6.92 6.92 0 0 0 2.16 4.54 35.88 35.88 0 0 0 4 3.35c4.65 3.24 8.32 6.27 10.81 9.94s4 8 4 14.16c0 15.13-10.59 27.23-25.94 27.23a43.24 43.24 0 0 1-16.53-3.35z" transform="translate(-206.8 -86.42)"/>
</svg>
